STARTFONT 2.1
COMMENT  
COMMENT  2002 - Iconian Fonts: www.iconian.com
COMMENT  
COMMENT  WARNING:  This bdf file was generated from a font server using
COMMENT  fstobdf.  The resulting font is subject to the same copyright,
COMMENT  license, and trademark restrictions as the original font.  The
COMMENT  authors and distributors of fstobdf disclaim all liability for
COMMENT  misuse of the program or its output.
COMMENT  
FONT -bitstream-radio space-medium-r-normal--24-231-75-75-p-142-iso8859-1
SIZE 23 75 75
FONTBOUNDINGBOX 28 30 -2 -7
STARTPROPERTIES 37
FONT "-bitstream-radio space-medium-r-normal--24-231-75-75-p-142-iso8859-1"
FOUNDRY "bitstream"
FAMILY_NAME "radio space"
WEIGHT_NAME "medium"
SLANT "r"
SETWIDTH_NAME "normal"
ADD_STYLE_NAME ""
PIXEL_SIZE 24
POINT_SIZE 231
RESOLUTION_X 75
RESOLUTION_Y 75
SPACING "p"
AVERAGE_WIDTH 142
CHARSET_REGISTRY "iso8859"
CHARSET_ENCODING "1"
RAW_PIXEL_SIZE 1000
RAW_POINT_SIZE 964
RAW_AVERAGE_WIDTH 13042
FONT_ASCENT 23
RAW_ASCENT 903
FONT_DESCENT 7
RAW_DESCENT 270
COPYRIGHT "2002 - Iconian Fonts: www.iconian.com"
FACE_NAME "Radio Space"
_ADOBE_POSTSCRIPT_FONTNAME "RadioSpace"
SUBSCRIPT_SIZE 14
SUBSCRIPT_X 0
SUBSCRIPT_Y -4
SUPERSCRIPT_SIZE 14
SUPERSCRIPT_X 0
SUPERSCRIPT_Y 5
UNDERLINE_THICKNESS 2
UNDERLINE_POSITION 2
ITALIC_ANGLE 5760
FONT_TYPE "TrueType"
RASTERIZER_NAME "FreeType"
DEFAULT_CHAR 0
ENDPROPERTIES
CHARS 191
STARTCHAR space
ENCODING 32
SWIDTH 333 0
DWIDTH 8 0
BBX 0 0 0 0
ATTRIBUTES 1f40
BITMAP
ENDCHAR
STARTCHAR exclam
ENCODING 33
SWIDTH 250 0
DWIDTH 6 0
BBX 2 16 2 0
ATTRIBUTES 1770
BITMAP
c0
c0
c0
c0
c0
c0
c0
c0
c0
00
00
00
00
00
c0
c0
ENDCHAR
STARTCHAR quotedbl
ENCODING 34
SWIDTH 417 0
DWIDTH 10 0
BBX 6 6 2 10
ATTRIBUTES 2710
BITMAP
cc
cc
44
44
44
00
ENDCHAR
STARTCHAR numbersign
ENCODING 35
SWIDTH 793 0
DWIDTH 19 0
BBX 15 16 2 0
ATTRIBUTES 4a38
BITMAP
1860
1860
1860
1860
1860
fffe
fffe
0060
0060
0060
fffe
fffe
1860
1860
1860
1860
ENDCHAR
STARTCHAR dollar
ENCODING 36
SWIDTH 667 0
DWIDTH 16 0
BBX 13 16 2 0
ATTRIBUTES 3e80
BITMAP
7ff8
fff8
e300
c300
c300
c300
c300
fff0
7ff8
0338
0318
0318
0318
0338
fff8
fff0
ENDCHAR
STARTCHAR percent
ENCODING 37
SWIDTH 960 0
DWIDTH 23 0
BBX 19 16 2 0
ATTRIBUTES 59d8
BITMAP
fe0700
fe0600
c60c00
c61c00
c61800
c63000
c67000
c66fe0
fedfe0
7dd860
019860
031860
061860
061860
0c1fe0
180fe0
ENDCHAR
STARTCHAR ampersand
ENCODING 38
SWIDTH 667 0
DWIDTH 16 0
BBX 13 16 2 0
ATTRIBUTES 3e80
BITMAP
0600
0600
0600
0600
0600
0600
0600
fff8
fff8
fff8
0618
0618
0618
07f8
07f8
07f8
ENDCHAR
STARTCHAR apostrophe
ENCODING 39
SWIDTH 250 0
DWIDTH 6 0
BBX 2 6 2 10
ATTRIBUTES 1770
BITMAP
c0
c0
40
40
40
00
ENDCHAR
STARTCHAR parenleft
ENCODING 40
SWIDTH 417 0
DWIDTH 10 0
BBX 7 16 2 0
ATTRIBUTES 2710
BITMAP
7e
fe
e0
c0
c0
c0
c0
c0
c0
c0
c0
c0
c0
e0
fe
7e
ENDCHAR
STARTCHAR parenright
ENCODING 41
SWIDTH 417 0
DWIDTH 10 0
BBX 6 16 2 0
ATTRIBUTES 2710
BITMAP
f8
fc
1c
0c
0c
0c
0c
0c
0c
0c
0c
0c
0c
1c
fc
f8
ENDCHAR
STARTCHAR asterisk
ENCODING 42
SWIDTH 500 0
DWIDTH 12 0
BBX 9 9 2 7
ATTRIBUTES 2ee0
BITMAP
0800
0800
0800
eb00
7f00
1800
3400
3600
6200
ENDCHAR
STARTCHAR plus
ENCODING 43
SWIDTH 500 0
DWIDTH 12 0
BBX 9 9 2 3
ATTRIBUTES 2ee0
BITMAP
1800
1800
1800
ff80
ff80
1800
1800
1800
1800
ENDCHAR
STARTCHAR comma
ENCODING 44
SWIDTH 250 0
DWIDTH 6 0
BBX 2 5 2 -3
ATTRIBUTES 1770
BITMAP
c0
c0
40
40
00
ENDCHAR
STARTCHAR minus
ENCODING 45
SWIDTH 500 0
DWIDTH 12 0
BBX 9 2 2 7
ATTRIBUTES 2ee0
BITMAP
ff80
ff80
ENDCHAR
STARTCHAR period
ENCODING 46
SWIDTH 250 0
DWIDTH 6 0
BBX 2 2 2 0
ATTRIBUTES 1770
BITMAP
c0
c0
ENDCHAR
STARTCHAR slash
ENCODING 47
SWIDTH 667 0
DWIDTH 16 0
BBX 13 16 2 0
ATTRIBUTES 3e80
BITMAP
0038
0030
0060
00e0
00c0
0180
0380
0300
0600
0e00
0c00
1800
3800
3000
6000
e000
ENDCHAR
STARTCHAR 0
ENCODING 48
SWIDTH 667 0
DWIDTH 16 0
BBX 13 16 2 0
ATTRIBUTES 3e80
BITMAP
7ff0
fff8
e038
c018
c018
c018
c018
c018
c018
c018
c018
c018
c018
e038
fff8
7ff0
ENDCHAR
STARTCHAR 1
ENCODING 49
SWIDTH 250 0
DWIDTH 6 0
BBX 2 16 2 0
ATTRIBUTES 1770
BITMAP
c0
c0
c0
c0
c0
c0
c0
c0
c0
c0
c0
c0
c0
c0
c0
c0
ENDCHAR
STARTCHAR 2
ENCODING 50
SWIDTH 667 0
DWIDTH 16 0
BBX 13 16 2 0
ATTRIBUTES 3e80
BITMAP
fff0
fff8
0038
0018
0018
0018
0018
7ff8
fff0
e000
c000
c000
c000
c000
fff8
fff8
ENDCHAR
STARTCHAR 3
ENCODING 51
SWIDTH 709 0
DWIDTH 17 0
BBX 13 16 2 0
ATTRIBUTES 4268
BITMAP
fff0
fff8
0038
0018
0018
0018
0018
fff8
fff8
0018
0018
0018
0018
0038
fff8
fff0
ENDCHAR
STARTCHAR 4
ENCODING 52
SWIDTH 667 0
DWIDTH 16 0
BBX 13 16 2 0
ATTRIBUTES 3e80
BITMAP
c018
c018
c018
c018
c018
c018
c018
fff8
7ff8
0018
0018
0018
0018
0018
0018
0018
ENDCHAR
STARTCHAR 5
ENCODING 53
SWIDTH 667 0
DWIDTH 16 0
BBX 13 16 2 0
ATTRIBUTES 3e80
BITMAP
fff8
fff8
c000
c000
c000
c000
c000
fff0
7ff8
0038
0018
0018
0018
0038
fff8
fff0
ENDCHAR
STARTCHAR 6
ENCODING 54
SWIDTH 667 0
DWIDTH 16 0
BBX 13 16 2 0
ATTRIBUTES 3e80
BITMAP
7ff8
fff8
e000
c000
c000
c000
c000
fff0
fff8
c038
c018
c018
c018
e038
fff8
7ff0
ENDCHAR
STARTCHAR 7
ENCODING 55
SWIDTH 709 0
DWIDTH 17 0
BBX 13 16 2 0
ATTRIBUTES 4268
BITMAP
fff0
fff8
0038
0018
0018
0018
0018
0018
0018
0018
0018
0018
0018
0018
0018
0018
ENDCHAR
STARTCHAR 8
ENCODING 56
SWIDTH 667 0
DWIDTH 16 0
BBX 13 16 2 0
ATTRIBUTES 3e80
BITMAP
7ff0
fff8
e038
c018
c018
c018
c018
fff8
fff8
c018
c018
c018
c018
e038
fff8
7ff0
ENDCHAR
STARTCHAR 9
ENCODING 57
SWIDTH 667 0
DWIDTH 16 0
BBX 13 16 2 0
ATTRIBUTES 3e80
BITMAP
7ff0
fff8
e038
c018
c018
c018
c018
fff8
7ff8
0018
0018
0018
0018
0038
fff8
fff0
ENDCHAR
STARTCHAR colon
ENCODING 58
SWIDTH 250 0
DWIDTH 6 0
BBX 2 7 2 0
ATTRIBUTES 1770
BITMAP
c0
c0
00
00
00
c0
c0
ENDCHAR
STARTCHAR semicolon
ENCODING 59
SWIDTH 250 0
DWIDTH 6 0
BBX 2 10 2 -3
ATTRIBUTES 1770
BITMAP
c0
c0
00
00
00
c0
c0
40
40
00
ENDCHAR
STARTCHAR less
ENCODING 60
SWIDTH 417 0
DWIDTH 10 0
BBX 7 16 2 0
ATTRIBUTES 2710
BITMAP
7e
fe
e0
c0
c0
c0
c0
c0
c0
c0
c0
c0
c0
e0
fe
7e
ENDCHAR
STARTCHAR equal
ENCODING 61
SWIDTH 500 0
DWIDTH 12 0
BBX 9 7 2 4
ATTRIBUTES 2ee0
BITMAP
ff80
ff80
0000
0000
0000
ff80
ff80
ENDCHAR
STARTCHAR greater
ENCODING 62
SWIDTH 417 0
DWIDTH 10 0
BBX 6 16 2 0
ATTRIBUTES 2710
BITMAP
f8
fc
1c
0c
0c
0c
0c
0c
0c
0c
0c
0c
0c
1c
fc
f8
ENDCHAR
STARTCHAR question
ENCODING 63
SWIDTH 667 0
DWIDTH 16 0
BBX 13 16 2 0
ATTRIBUTES 3e80
BITMAP
fff0
fff8
0038
0018
0018
0018
0018
7ff8
fff0
e000
c000
0000
0000
0000
c000
c000
ENDCHAR
STARTCHAR at
ENCODING 64
SWIDTH 751 0
DWIDTH 18 0
BBX 15 13 2 1
ATTRIBUTES 4650
BITMAP
7ffc
fffe
c006
dff6
dff6
d836
d836
dff6
cff6
c006
e00e
fffe
7ffc
ENDCHAR
STARTCHAR A
ENCODING 65
SWIDTH 667 0
DWIDTH 16 0
BBX 13 16 2 0
ATTRIBUTES 3e80
BITMAP
7ff0
fff8
0038
0018
0018
0018
0018
fff8
fff8
c018
c018
c018
c018
c018
c018
c018
ENDCHAR
STARTCHAR B
ENCODING 66
SWIDTH 667 0
DWIDTH 16 0
BBX 13 16 2 0
ATTRIBUTES 3e80
BITMAP
fff0
fff8
0038
0018
0018
0018
0018
fff8
fff8
c018
c018
c018
c018
c038
fff8
fff0
ENDCHAR
STARTCHAR C
ENCODING 67
SWIDTH 667 0
DWIDTH 16 0
BBX 13 16 2 0
ATTRIBUTES 3e80
BITMAP
7ff8
fff8
e000
c000
c000
c000
c000
c000
c000
c000
c000
c000
c000
e000
fff8
7ff8
ENDCHAR
STARTCHAR D
ENCODING 68
SWIDTH 667 0
DWIDTH 16 0
BBX 13 16 2 0
ATTRIBUTES 3e80
BITMAP
fff0
fff8
c038
c018
c018
c018
c018
c018
c018
c018
c018
c018
c018
c038
cff8
cff0
ENDCHAR
STARTCHAR E
ENCODING 69
SWIDTH 667 0
DWIDTH 16 0
BBX 13 16 2 0
ATTRIBUTES 3e80
BITMAP
7ff8
fff8
e000
c000
c000
c000
c000
fff8
fff8
c000
c000
c000
c000
e000
fff8
7ff8
ENDCHAR
STARTCHAR F
ENCODING 70
SWIDTH 667 0
DWIDTH 16 0
BBX 13 16 2 0
ATTRIBUTES 3e80
BITMAP
7ff8
fff8
e000
c000
c000
c000
c000
fff8
fff8
c000
c000
c000
c000
c000
c000
c000
ENDCHAR
STARTCHAR G
ENCODING 71
SWIDTH 667 0
DWIDTH 16 0
BBX 13 16 2 0
ATTRIBUTES 3e80
BITMAP
7ff8
fff8
e000
c000
c000
c000
c000
c000
c018
c018
c018
c018
c018
e038
fff8
7ff0
ENDCHAR
STARTCHAR H
ENCODING 72
SWIDTH 667 0
DWIDTH 16 0
BBX 13 16 2 0
ATTRIBUTES 3e80
BITMAP
c018
c018
c018
c018
c018
c018
c018
fff8
fff8
c018
c018
c018
c018
c018
c018
c018
ENDCHAR
STARTCHAR I
ENCODING 73
SWIDTH 250 0
DWIDTH 6 0
BBX 2 16 2 0
ATTRIBUTES 1770
BITMAP
c0
c0
c0
c0
c0
c0
c0
c0
c0
c0
c0
c0
c0
c0
c0
c0
ENDCHAR
STARTCHAR J
ENCODING 74
SWIDTH 709 0
DWIDTH 17 0
BBX 13 16 2 0
ATTRIBUTES 4268
BITMAP
0018
0018
0018
0018
0018
0018
0018
0018
0018
0018
0018
0018
0018
0038
fff8
fff0
ENDCHAR
STARTCHAR K
ENCODING 75
SWIDTH 667 0
DWIDTH 16 0
BBX 13 16 2 0
ATTRIBUTES 3e80
BITMAP
c0f8
c1f8
c1c0
c180
c180
c180
c180
fff0
fff8
c038
c018
c018
c018
c018
c018
c018
ENDCHAR
STARTCHAR L
ENCODING 76
SWIDTH 667 0
DWIDTH 16 0
BBX 13 16 2 0
ATTRIBUTES 3e80
BITMAP
c000
c000
c000
c000
c000
c000
c000
c000
c000
c000
c000
c000
c000
e000
fff8
7ff8
ENDCHAR
STARTCHAR M
ENCODING 77
SWIDTH 751 0
DWIDTH 18 0
BBX 14 16 2 0
ATTRIBUTES 4650
BITMAP
7ff8
fffc
e01c
c00c
c30c
c30c
c30c
c30c
c30c
c30c
c30c
c30c
c30c
c30c
c30c
c30c
ENDCHAR
STARTCHAR N
ENCODING 78
SWIDTH 667 0
DWIDTH 16 0
BBX 13 16 2 0
ATTRIBUTES 3e80
BITMAP
7ff0
fff8
e038
c018
c018
c018
c018
c018
c018
c018
c018
c018
c018
c018
c018
c018
ENDCHAR
STARTCHAR O
ENCODING 79
SWIDTH 667 0
DWIDTH 16 0
BBX 13 16 2 0
ATTRIBUTES 3e80
BITMAP
7ff0
fff8
e038
c018
c018
c018
c018
c018
c018
c018
c018
c018
c018
e038
fff8
7ff0
ENDCHAR
STARTCHAR P
ENCODING 80
SWIDTH 667 0
DWIDTH 16 0
BBX 13 16 2 0
ATTRIBUTES 3e80
BITMAP
fff0
fff8
0038
0018
0018
0018
0018
fff8
fff0
c000
c000
c000
c000
c000
c000
c000
ENDCHAR
STARTCHAR Q
ENCODING 81
SWIDTH 667 0
DWIDTH 16 0
BBX 13 16 2 0
ATTRIBUTES 3e80
BITMAP
7ff0
fff8
e038
c018
c018
c018
c018
c018
c318
c318
c318
c318
c318
c3b8
c3f8
41f0
ENDCHAR
STARTCHAR R
ENCODING 82
SWIDTH 667 0
DWIDTH 16 0
BBX 13 16 2 0
ATTRIBUTES 3e80
BITMAP
fff0
fff8
0038
0018
0018
0018
0018
fff8
fff0
c180
c180
c180
c180
c1c0
c1f8
c0f8
ENDCHAR
STARTCHAR S
ENCODING 83
SWIDTH 667 0
DWIDTH 16 0
BBX 13 16 2 0
ATTRIBUTES 3e80
BITMAP
7ff8
fff8
e000
c000
c000
c000
c000
fff0
7ff8
0038
0018
0018
0018
0038
fff8
fff0
ENDCHAR
STARTCHAR T
ENCODING 84
SWIDTH 667 0
DWIDTH 16 0
BBX 13 16 2 0
ATTRIBUTES 3e80
BITMAP
fff8
fff8
0000
0000
0300
0300
0300
0300
0300
0300
0300
0300
0300
0300
0300
0300
ENDCHAR
STARTCHAR U
ENCODING 85
SWIDTH 667 0
DWIDTH 16 0
BBX 13 16 2 0
ATTRIBUTES 3e80
BITMAP
c018
c018
c018
c018
c018
c018
c018
c018
c018
c018
c018
c018
c018
e038
fff8
7ff0
ENDCHAR
STARTCHAR V
ENCODING 86
SWIDTH 667 0
DWIDTH 16 0
BBX 13 16 2 0
ATTRIBUTES 3e80
BITMAP
c018
c018
c018
c018
e038
6030
7070
3060
3060
18e0
18c0
1dc0
0d80
0f80
0700
0700
ENDCHAR
STARTCHAR W
ENCODING 87
SWIDTH 751 0
DWIDTH 18 0
BBX 14 16 2 0
ATTRIBUTES 4650
BITMAP
c30c
c30c
c30c
c30c
c30c
c30c
c30c
c30c
c30c
c30c
c30c
c30c
c00c
e01c
fffc
7ff8
ENDCHAR
STARTCHAR X
ENCODING 88
SWIDTH 751 0
DWIDTH 18 0
BBX 14 16 2 0
ATTRIBUTES 4650
BITMAP
f87c
fcfc
1ce0
0cc0
0cc0
0cc0
0cc0
0cc0
0cc0
0cc0
0cc0
0cc0
0cc0
1ce0
fcfc
f87c
ENDCHAR
STARTCHAR Y
ENCODING 89
SWIDTH 667 0
DWIDTH 16 0
BBX 13 16 2 0
ATTRIBUTES 3e80
BITMAP
c018
c018
c018
c018
c018
c018
c018
fff8
7ff8
0018
0018
0018
0018
0038
fff8
fff0
ENDCHAR
STARTCHAR Z
ENCODING 90
SWIDTH 667 0
DWIDTH 16 0
BBX 13 16 2 0
ATTRIBUTES 3e80
BITMAP
fff8
fff8
0038
0070
00e0
01e0
03c0
0780
0f00
1e00
1c00
3800
7800
f000
fff8
fff8
ENDCHAR
STARTCHAR bracketleft
ENCODING 91
SWIDTH 417 0
DWIDTH 10 0
BBX 7 16 2 0
ATTRIBUTES 2710
BITMAP
7e
fe
e0
c0
c0
c0
c0
c0
c0
c0
c0
c0
c0
e0
fe
7e
ENDCHAR
STARTCHAR backslash
ENCODING 92
SWIDTH 667 0
DWIDTH 16 0
BBX 13 16 2 0
ATTRIBUTES 3e80
BITMAP
e000
6000
3000
3800
1800
0c00
0e00
0600
0300
0380
0180
00c0
00e0
0060
0030
0038
ENDCHAR
STARTCHAR bracketright
ENCODING 93
SWIDTH 417 0
DWIDTH 10 0
BBX 6 16 2 0
ATTRIBUTES 2710
BITMAP
f8
fc
1c
0c
0c
0c
0c
0c
0c
0c
0c
0c
0c
1c
fc
f8
ENDCHAR
STARTCHAR asciicircum
ENCODING 94
SWIDTH 417 0
DWIDTH 10 0
BBX 0 0 0 0
ATTRIBUTES 2710
BITMAP
ENDCHAR
STARTCHAR underscore
ENCODING 95
SWIDTH 584 0
DWIDTH 14 0
BBX 14 2 0 -4
ATTRIBUTES 36b0
BITMAP
fffc
fffc
ENDCHAR
STARTCHAR grave
ENCODING 96
SWIDTH 292 0
DWIDTH 7 0
BBX 4 6 2 10
ATTRIBUTES 1b58
BITMAP
c0
e0
60
20
20
00
ENDCHAR
STARTCHAR a
ENCODING 97
SWIDTH 667 0
DWIDTH 16 0
BBX 13 9 2 0
ATTRIBUTES 3e80
BITMAP
7ff8
fff8
e018
c018
c018
c018
e018
ff18
7f18
ENDCHAR
STARTCHAR b
ENCODING 98
SWIDTH 667 0
DWIDTH 16 0
BBX 13 16 2 0
ATTRIBUTES 3e80
BITMAP
c000
c000
c000
c000
c000
c000
c000
fff0
fff8
0038
0018
0018
0018
0038
fff8
fff0
ENDCHAR
STARTCHAR c
ENCODING 99
SWIDTH 667 0
DWIDTH 16 0
BBX 13 9 2 0
ATTRIBUTES 3e80
BITMAP
7ff8
fff8
e000
c000
c000
c000
e000
fff8
7ff8
ENDCHAR
STARTCHAR d
ENCODING 100
SWIDTH 667 0
DWIDTH 16 0
BBX 13 16 2 0
ATTRIBUTES 3e80
BITMAP
0018
0018
0018
0018
0018
0018
0018
7ff8
fff8
e000
c000
c000
c000
e000
fff8
7ff8
ENDCHAR
STARTCHAR e
ENCODING 101
SWIDTH 667 0
DWIDTH 16 0
BBX 13 9 2 0
ATTRIBUTES 3e80
BITMAP
7ff0
fff8
e078
c1e0
c3c0
c400
e000
fff8
7ff8
ENDCHAR
STARTCHAR f
ENCODING 102
SWIDTH 667 0
DWIDTH 16 0
BBX 13 16 2 -7
ATTRIBUTES 3e80
BITMAP
7ff8
fff8
0000
0000
0000
0000
0000
fff8
fff8
c000
c000
c000
c000
c000
c000
c000
ENDCHAR
STARTCHAR g
ENCODING 103
SWIDTH 667 0
DWIDTH 16 0
BBX 13 16 2 -7
ATTRIBUTES 3e80
BITMAP
7ff8
fff8
e000
c000
c000
c000
e000
fff8
7ff8
0018
0018
0018
0018
0018
0018
0018
ENDCHAR
STARTCHAR h
ENCODING 104
SWIDTH 667 0
DWIDTH 16 0
BBX 13 16 2 0
ATTRIBUTES 3e80
BITMAP
c000
c000
c000
c000
c000
c000
c000
fff0
fff8
c038
c018
c018
c018
c018
c018
c018
ENDCHAR
STARTCHAR i
ENCODING 105
SWIDTH 250 0
DWIDTH 6 0
BBX 2 16 2 0
ATTRIBUTES 1770
BITMAP
c0
c0
00
00
00
00
00
c0
c0
c0
c0
c0
c0
c0
c0
c0
ENDCHAR
STARTCHAR j
ENCODING 106
SWIDTH 250 0
DWIDTH 6 0
BBX 6 23 -2 -7
ATTRIBUTES 1770
BITMAP
0c
0c
00
00
00
00
00
0c
0c
0c
0c
0c
0c
0c
0c
0c
0c
0c
0c
0c
1c
fc
f8
ENDCHAR
STARTCHAR k
ENCODING 107
SWIDTH 667 0
DWIDTH 16 0
BBX 13 16 2 0
ATTRIBUTES 3e80
BITMAP
c000
c000
c000
c180
c180
c180
c180
fff0
fff8
c038
c018
c018
c018
c018
c018
c018
ENDCHAR
STARTCHAR l
ENCODING 108
SWIDTH 250 0
DWIDTH 6 0
BBX 2 16 2 0
ATTRIBUTES 1770
BITMAP
c0
c0
c0
c0
c0
c0
c0
c0
c0
c0
c0
c0
c0
c0
c0
c0
ENDCHAR
STARTCHAR m
ENCODING 109
SWIDTH 751 0
DWIDTH 18 0
BBX 14 9 2 0
ATTRIBUTES 4650
BITMAP
7ff8
fffc
e01c
c00c
c30c
c30c
c30c
c30c
c30c
ENDCHAR
STARTCHAR n
ENCODING 110
SWIDTH 667 0
DWIDTH 16 0
BBX 13 9 2 0
ATTRIBUTES 3e80
BITMAP
7ff0
fff8
e038
c018
c018
c018
c018
c018
c018
ENDCHAR
STARTCHAR o
ENCODING 111
SWIDTH 667 0
DWIDTH 16 0
BBX 13 9 2 0
ATTRIBUTES 3e80
BITMAP
7ff0
fff8
e038
c018
c018
c018
e038
fff8
7ff0
ENDCHAR
STARTCHAR p
ENCODING 112
SWIDTH 667 0
DWIDTH 16 0
BBX 13 16 2 -7
ATTRIBUTES 3e80
BITMAP
fff0
fff8
0038
0018
0018
0018
0038
fff8
fff0
c000
c000
c000
c000
c000
c000
c000
ENDCHAR
STARTCHAR q
ENCODING 113
SWIDTH 667 0
DWIDTH 16 0
BBX 16 16 2 -7
ATTRIBUTES 3e80
BITMAP
7ff8
fff8
e000
c000
c000
c000
e000
fff8
7ff8
0018
0018
0018
0018
0018
001f
001f
ENDCHAR
STARTCHAR r
ENCODING 114
SWIDTH 667 0
DWIDTH 16 0
BBX 13 9 2 0
ATTRIBUTES 3e80
BITMAP
7ff8
fff8
e000
c000
c000
c000
c000
c000
c000
ENDCHAR
STARTCHAR s
ENCODING 115
SWIDTH 667 0
DWIDTH 16 0
BBX 13 9 2 0
ATTRIBUTES 3e80
BITMAP
7ff8
fff8
f800
3e00
0f80
03e0
00f8
fff8
fff0
ENDCHAR
STARTCHAR t
ENCODING 116
SWIDTH 667 0
DWIDTH 16 0
BBX 13 16 2 0
ATTRIBUTES 3e80
BITMAP
c000
c000
c000
c000
c000
c000
c000
fff8
fff8
c000
c000
c000
c000
e000
fff8
7ff8
ENDCHAR
STARTCHAR u
ENCODING 117
SWIDTH 667 0
DWIDTH 16 0
BBX 13 9 2 0
ATTRIBUTES 3e80
BITMAP
c018
c018
c018
c018
c018
c018
e038
fff8
7ff0
ENDCHAR
STARTCHAR v
ENCODING 118
SWIDTH 667 0
DWIDTH 16 0
BBX 13 9 2 0
ATTRIBUTES 3e80
BITMAP
c018
c018
c018
e038
7070
38e0
1dc0
0f80
0700
ENDCHAR
STARTCHAR w
ENCODING 119
SWIDTH 751 0
DWIDTH 18 0
BBX 14 9 2 0
ATTRIBUTES 4650
BITMAP
c30c
c30c
c30c
c30c
c30c
c00c
e01c
fffc
7ff8
ENDCHAR
STARTCHAR x
ENCODING 120
SWIDTH 667 0
DWIDTH 16 0
BBX 13 9 2 0
ATTRIBUTES 3e80
BITMAP
e038
e038
f8f8
3e20
0f80
23e0
f8f8
e038
e038
ENDCHAR
STARTCHAR y
ENCODING 121
SWIDTH 667 0
DWIDTH 16 0
BBX 13 16 2 -7
ATTRIBUTES 3e80
BITMAP
c018
c018
c018
c018
c018
c018
e018
fff8
7ff8
0018
0018
0018
0018
0018
0018
0018
ENDCHAR
STARTCHAR z
ENCODING 122
SWIDTH 667 0
DWIDTH 16 0
BBX 13 9 2 0
ATTRIBUTES 3e80
BITMAP
fff8
fff8
00f8
03e0
0f80
3e00
f800
fff8
fff8
ENDCHAR
STARTCHAR braceleft
ENCODING 123
SWIDTH 417 0
DWIDTH 10 0
BBX 7 16 2 0
ATTRIBUTES 2710
BITMAP
7e
fe
e0
c0
c0
c0
c0
c0
c0
c0
c0
c0
c0
e0
fe
7e
ENDCHAR
STARTCHAR bar
ENCODING 124
SWIDTH 250 0
DWIDTH 6 0
BBX 2 16 2 0
ATTRIBUTES 1770
BITMAP
c0
c0
c0
c0
c0
c0
c0
c0
c0
c0
c0
c0
c0
c0
c0
c0
ENDCHAR
STARTCHAR braceright
ENCODING 125
SWIDTH 417 0
DWIDTH 10 0
BBX 6 16 2 0
ATTRIBUTES 2710
BITMAP
f8
fc
1c
0c
0c
0c
0c
0c
0c
0c
0c
0c
0c
1c
fc
f8
ENDCHAR
STARTCHAR asciitilde
ENCODING 126
SWIDTH 459 0
DWIDTH 11 0
BBX 8 6 2 3
ATTRIBUTES 2af8
BITMAP
03
03
7f
fe
c0
c0
ENDCHAR
STARTCHAR nobreakspace
ENCODING 160
SWIDTH 793 0
DWIDTH 19 0
BBX 0 0 0 0
ATTRIBUTES 4a38
BITMAP
ENDCHAR
STARTCHAR exclamdown
ENCODING 161
SWIDTH 250 0
DWIDTH 6 0
BBX 2 16 2 0
ATTRIBUTES 1770
BITMAP
c0
c0
00
00
00
00
00
c0
c0
c0
c0
c0
c0
c0
c0
c0
ENDCHAR
STARTCHAR cent
ENCODING 162
SWIDTH 709 0
DWIDTH 17 0
BBX 13 16 2 0
ATTRIBUTES 4268
BITMAP
0300
0300
0300
0300
7ff8
fff8
e300
c300
c300
c300
e300
fff8
7ff8
0300
0300
0300
ENDCHAR
STARTCHAR sterling
ENCODING 163
SWIDTH 584 0
DWIDTH 14 0
BBX 12 22 1 -4
ATTRIBUTES 36b0
BITMAP
fff0
8010
8010
8010
8010
8010
8010
8010
8010
8010
8010
8010
8010
8010
8010
8010
8010
8010
8010
8010
8010
fff0
ENDCHAR
STARTCHAR currency
ENCODING 164
SWIDTH 709 0
DWIDTH 17 0
BBX 14 14 2 0
ATTRIBUTES 4268
BITMAP
4008
e018
7ff8
3ff0
3870
3870
3030
3030
3870
1de0
3ff0
77b8
6018
0000
ENDCHAR
STARTCHAR yen
ENCODING 165
SWIDTH 793 0
DWIDTH 19 0
BBX 16 16 2 0
ATTRIBUTES 4a38
BITMAP
c018
c018
c018
c1ff
c1ff
c018
c018
fff8
7ff8
0018
01ff
01ff
0018
0038
fff8
fff0
ENDCHAR
STARTCHAR brokenbar
ENCODING 166
SWIDTH 500 0
DWIDTH 12 0
BBX 2 22 5 -4
ATTRIBUTES 2ee0
BITMAP
c0
c0
c0
c0
c0
c0
c0
c0
c0
00
00
00
00
c0
c0
c0
c0
c0
c0
c0
c0
c0
ENDCHAR
STARTCHAR section
ENCODING 167
SWIDTH 667 0
DWIDTH 16 0
BBX 13 16 2 0
ATTRIBUTES 3e80
BITMAP
7ff8
fff8
e000
c000
fff0
fff8
c018
c018
c018
c018
fff8
7ff8
0018
0038
fff8
fff0
ENDCHAR
STARTCHAR diaeresis
ENCODING 168
SWIDTH 417 0
DWIDTH 10 0
BBX 6 2 2 17
ATTRIBUTES 2710
BITMAP
cc
cc
ENDCHAR
STARTCHAR copyright
ENCODING 169
SWIDTH 751 0
DWIDTH 18 0
BBX 15 13 2 1
ATTRIBUTES 4650
BITMAP
7ffc
fffe
c006
c006
cfe6
c806
c806
cfe6
c006
c006
e00e
fffe
7ffc
ENDCHAR
STARTCHAR ordfeminine
ENCODING 170
SWIDTH 375 0
DWIDTH 9 0
BBX 7 9 1 7
ATTRIBUTES 2328
BITMAP
fe
02
02
02
fe
82
82
82
82
ENDCHAR
STARTCHAR guillemotleft
ENCODING 171
SWIDTH 542 0
DWIDTH 13 0
BBX 10 7 1 2
ATTRIBUTES 32c8
BITMAP
10c0
39c0
7380
e700
71c0
38c0
1000
ENDCHAR
STARTCHAR notsign
ENCODING 172
SWIDTH 500 0
DWIDTH 12 0
BBX 8 6 2 3
ATTRIBUTES 2ee0
BITMAP
ff
ff
03
03
03
03
ENDCHAR
STARTCHAR hyphen
ENCODING 173
SWIDTH 500 0
DWIDTH 12 0
BBX 9 2 2 7
ATTRIBUTES 2ee0
BITMAP
ff80
ff80
ENDCHAR
STARTCHAR registered
ENCODING 174
SWIDTH 751 0
DWIDTH 18 0
BBX 15 13 2 1
ATTRIBUTES 4650
BITMAP
7ffc
fffe
c006
c006
cfe6
c806
c806
c806
c806
c006
e00e
fffe
7ffc
ENDCHAR
STARTCHAR macron
ENCODING 175
SWIDTH 500 0
DWIDTH 12 0
BBX 6 2 3 13
ATTRIBUTES 2ee0
BITMAP
fc
fc
ENDCHAR
STARTCHAR degree
ENCODING 176
SWIDTH 375 0
DWIDTH 9 0
BBX 7 9 1 7
ATTRIBUTES 2328
BITMAP
fe
fe
c6
c6
c6
c6
c6
fe
7c
ENDCHAR
STARTCHAR plusminus
ENCODING 177
SWIDTH 500 0
DWIDTH 12 0
BBX 9 12 2 0
ATTRIBUTES 2ee0
BITMAP
1800
1800
1800
ff80
ff80
1800
1800
1800
1800
0000
ff80
ff80
ENDCHAR
STARTCHAR twosuperior
ENCODING 178
SWIDTH 375 0
DWIDTH 9 0
BBX 7 8 1 8
ATTRIBUTES 2328
BITMAP
fe
02
02
02
fe
80
80
fe
ENDCHAR
STARTCHAR threesuperior
ENCODING 179
SWIDTH 375 0
DWIDTH 9 0
BBX 7 8 1 8
ATTRIBUTES 2328
BITMAP
fe
02
02
02
fe
02
02
fe
ENDCHAR
STARTCHAR acute
ENCODING 180
SWIDTH 292 0
DWIDTH 7 0
BBX 3 5 3 11
ATTRIBUTES 1b58
BITMAP
60
e0
c0
80
00
ENDCHAR
STARTCHAR mu
ENCODING 181
SWIDTH 793 0
DWIDTH 19 0
BBX 15 12 2 -3
ATTRIBUTES 4a38
BITMAP
c018
c018
c018
c018
c018
c018
e038
fffe
fffe
c000
c000
c000
ENDCHAR
STARTCHAR paragraph
ENCODING 182
SWIDTH 709 0
DWIDTH 17 0
BBX 13 16 2 0
ATTRIBUTES 4268
BITMAP
fff0
fff8
fe38
fe18
fe18
fe18
fe18
fe18
3e18
0618
0618
0618
0618
0618
0618
0618
ENDCHAR
STARTCHAR periodcentered
ENCODING 183
SWIDTH 250 0
DWIDTH 6 0
BBX 2 2 2 5
ATTRIBUTES 1770
BITMAP
c0
c0
ENDCHAR
STARTCHAR cedilla
ENCODING 184
SWIDTH 250 0
DWIDTH 6 0
BBX 2 4 2 -4
ATTRIBUTES 1770
BITMAP
c0
c0
c0
c0
ENDCHAR
STARTCHAR onesuperior
ENCODING 185
SWIDTH 125 0
DWIDTH 3 0
BBX 1 9 1 7
ATTRIBUTES 0bb8
BITMAP
80
80
80
80
80
80
80
80
80
ENDCHAR
STARTCHAR masculine
ENCODING 186
SWIDTH 375 0
DWIDTH 9 0
BBX 7 9 1 7
ATTRIBUTES 2328
BITMAP
fe
fe
c6
c6
c6
c6
c6
fe
7c
ENDCHAR
STARTCHAR guillemotright
ENCODING 187
SWIDTH 584 0
DWIDTH 14 0
BBX 10 7 2 2
ATTRIBUTES 36b0
BITMAP
4200
e700
7380
39c0
e380
c700
0200
ENDCHAR
STARTCHAR onequarter
ENCODING 188
SWIDTH 834 0
DWIDTH 20 0
BBX 16 16 2 0
ATTRIBUTES 4e20
BITMAP
0018
4030
4060
4060
40c0
4180
4180
4321
4621
4e21
0c21
183f
3801
3001
6001
e001
ENDCHAR
STARTCHAR onehalf
ENCODING 189
SWIDTH 834 0
DWIDTH 20 0
BBX 17 16 2 0
ATTRIBUTES 4e20
BITMAP
001800
403000
407000
406000
40c000
41c000
438000
433f80
460080
4e0080
0c0080
183f80
382000
302000
603f80
e00000
ENDCHAR
STARTCHAR threequarters
ENCODING 190
SWIDTH 1001 0
DWIDTH 24 0
BBX 20 16 2 0
ATTRIBUTES 5dc0
BITMAP
000300
fe0700
020e00
020c00
021c00
fe3800
023000
026410
fee410
00c410
018410
0387f0
030010
060010
0e0010
0c0010
ENDCHAR
STARTCHAR questiondown
ENCODING 191
SWIDTH 667 0
DWIDTH 16 0
BBX 13 16 2 0
ATTRIBUTES 3e80
BITMAP
0018
0018
0000
0000
0000
0018
0018
7ff8
fff0
e000
c000
c000
c000
e000
fff8
7ff8
ENDCHAR
STARTCHAR Agrave
ENCODING 192
SWIDTH 667 0
DWIDTH 16 0
BBX 13 21 2 0
ATTRIBUTES 3e80
BITMAP
0600
0700
0300
0100
0000
7ff0
fff8
0038
0018
0018
0018
0018
fff8
fff8
c018
c018
c018
c018
c018
c018
c018
ENDCHAR
STARTCHAR Aacute
ENCODING 193
SWIDTH 667 0
DWIDTH 16 0
BBX 13 21 2 0
ATTRIBUTES 3e80
BITMAP
0700
0700
0600
0400
0000
7ff0
fff8
0038
0018
0018
0018
0018
fff8
fff8
c018
c018
c018
c018
c018
c018
c018
ENDCHAR
STARTCHAR Acircumflex
ENCODING 194
SWIDTH 667 0
DWIDTH 16 0
BBX 13 22 2 0
ATTRIBUTES 3e80
BITMAP
0200
0700
0f80
0dc0
0880
0000
7ff0
fff8
0038
0018
0018
0018
0018
fff8
fff8
c018
c018
c018
c018
c018
c018
c018
ENDCHAR
STARTCHAR Atilde
ENCODING 195
SWIDTH 709 0
DWIDTH 17 0
BBX 13 23 2 0
ATTRIBUTES 4268
BITMAP
0060
0060
1fe0
3fc0
3800
3800
0000
7ff0
fff8
0038
0018
0018
0018
0018
fff8
fff8
c018
c018
c018
c018
c018
c018
c018
ENDCHAR
STARTCHAR Adiaeresis
ENCODING 196
SWIDTH 667 0
DWIDTH 16 0
BBX 13 19 2 0
ATTRIBUTES 3e80
BITMAP
0d80
0d80
0000
7ff0
fff8
0038
0018
0018
0018
0018
fff8
fff8
c018
c018
c018
c018
c018
c018
c018
ENDCHAR
STARTCHAR Aring
ENCODING 197
SWIDTH 667 0
DWIDTH 16 0
BBX 13 21 2 0
ATTRIBUTES 3e80
BITMAP
0780
0480
0480
0780
0000
7ff0
fff8
0038
0018
0018
0018
0018
fff8
fff8
c018
c018
c018
c018
c018
c018
c018
ENDCHAR
STARTCHAR AE
ENCODING 198
SWIDTH 1168 0
DWIDTH 28 0
BBX 24 16 2 0
ATTRIBUTES 6d60
BITMAP
7fffff
ffffff
003c00
001800
001800
001800
001800
ffffff
ffffff
c01800
c01800
c01800
c01800
c01c00
c01fff
c01fff
ENDCHAR
STARTCHAR Ccedilla
ENCODING 199
SWIDTH 667 0
DWIDTH 16 0
BBX 13 20 2 -4
ATTRIBUTES 3e80
BITMAP
7ff8
fff8
e000
c000
c000
c000
c000
c000
c000
c000
c000
c000
c000
e000
fff8
7ff8
0300
0100
0300
0300
ENDCHAR
STARTCHAR Egrave
ENCODING 200
SWIDTH 667 0
DWIDTH 16 0
BBX 13 21 2 0
ATTRIBUTES 3e80
BITMAP
0700
0700
0300
0100
0000
7ff8
fff8
e000
c000
c000
c000
c000
fff8
fff8
c000
c000
c000
c000
e000
fff8
7ff8
ENDCHAR
STARTCHAR Eacute
ENCODING 201
SWIDTH 667 0
DWIDTH 16 0
BBX 13 21 2 0
ATTRIBUTES 3e80
BITMAP
0180
0380
0300
0200
0000
7ff8
fff8
e000
c000
c000
c000
c000
fff8
fff8
c000
c000
c000
c000
e000
fff8
7ff8
ENDCHAR
STARTCHAR Ecircumflex
ENCODING 202
SWIDTH 667 0
DWIDTH 16 0
BBX 13 22 2 0
ATTRIBUTES 3e80
BITMAP
0200
0700
0780
0dc0
0880
0000
7ff8
fff8
e000
c000
c000
c000
c000
fff8
fff8
c000
c000
c000
c000
e000
fff8
7ff8
ENDCHAR
STARTCHAR Ediaeresis
ENCODING 203
SWIDTH 667 0
DWIDTH 16 0
BBX 13 19 2 0
ATTRIBUTES 3e80
BITMAP
0d80
0d80
0000
7ff8
fff8
e000
c000
c000
c000
c000
fff8
fff8
c000
c000
c000
c000
e000
fff8
7ff8
ENDCHAR
STARTCHAR Igrave
ENCODING 204
SWIDTH 250 0
DWIDTH 6 0
BBX 3 21 2 0
ATTRIBUTES 1770
BITMAP
c0
e0
60
20
00
c0
c0
c0
c0
c0
c0
c0
c0
c0
c0
c0
c0
c0
c0
c0
c0
ENDCHAR
STARTCHAR Iacute
ENCODING 205
SWIDTH 250 0
DWIDTH 6 0
BBX 4 21 1 0
ATTRIBUTES 1770
BITMAP
70
70
60
00
00
60
60
60
60
60
60
60
60
60
60
60
60
60
60
60
60
ENDCHAR
STARTCHAR Icircumflex
ENCODING 206
SWIDTH 250 0
DWIDTH 6 0
BBX 7 22 0 0
ATTRIBUTES 1770
BITMAP
10
38
7c
ec
44
00
30
30
30
30
30
30
30
30
30
30
30
30
30
30
30
30
ENDCHAR
STARTCHAR Idiaeresis
ENCODING 207
SWIDTH 250 0
DWIDTH 6 0
BBX 6 19 0 0
ATTRIBUTES 1770
BITMAP
cc
cc
00
30
30
30
30
30
30
30
30
30
30
30
30
30
30
30
30
ENDCHAR
STARTCHAR ETH
ENCODING 208
SWIDTH 834 0
DWIDTH 20 0
BBX 16 16 2 0
ATTRIBUTES 4e20
BITMAP
1ffe
1fff
1807
1803
1803
1803
1803
ff83
ff83
1803
1803
1803
1803
1807
19ff
19fe
ENDCHAR
STARTCHAR Ntilde
ENCODING 209
SWIDTH 709 0
DWIDTH 17 0
BBX 13 23 2 0
ATTRIBUTES 4268
BITMAP
0060
0060
0fe0
1fc0
1800
1800
0000
7ff0
fff8
e038
e018
e018
e018
e018
e018
e018
e018
e018
e018
e018
e018
e018
e018
ENDCHAR
STARTCHAR Ograve
ENCODING 210
SWIDTH 667 0
DWIDTH 16 0
BBX 13 21 2 0
ATTRIBUTES 3e80
BITMAP
0600
0700
0300
0100
0000
7ff0
fff8
e038
c018
c018
c018
c018
c018
c018
c018
c018
c018
c018
e038
fff8
7ff0
ENDCHAR
STARTCHAR Oacute
ENCODING 211
SWIDTH 667 0
DWIDTH 16 0
BBX 13 21 2 0
ATTRIBUTES 3e80
BITMAP
0300
0700
0600
0400
0000
7ff0
fff8
e038
c018
c018
c018
c018
c018
c018
c018
c018
c018
c018
e038
fff8
7ff0
ENDCHAR
STARTCHAR Ocircumflex
ENCODING 212
SWIDTH 667 0
DWIDTH 16 0
BBX 13 22 2 0
ATTRIBUTES 3e80
BITMAP
0200
0700
0f80
0dc0
0880
0000
7ff0
fff8
e038
c018
c018
c018
c018
c018
c018
c018
c018
c018
c018
e038
fff8
7ff0
ENDCHAR
STARTCHAR Otilde
ENCODING 213
SWIDTH 709 0
DWIDTH 17 0
BBX 13 23 2 0
ATTRIBUTES 4268
BITMAP
0060
0060
0fe0
1fc0
1800
1800
0000
7ff0
fff8
e038
e018
e018
e018
e018
e018
e018
e018
e018
e018
e018
e038
fff8
7ff0
ENDCHAR
STARTCHAR Odiaeresis
ENCODING 214
SWIDTH 667 0
DWIDTH 16 0
BBX 13 19 2 0
ATTRIBUTES 3e80
BITMAP
0d80
0d80
0000
7ff0
fff8
e038
c018
c018
c018
c018
c018
c018
c018
c018
c018
c018
e038
fff8
7ff0
ENDCHAR
STARTCHAR multiply
ENCODING 215
SWIDTH 667 0
DWIDTH 16 0
BBX 13 9 2 0
ATTRIBUTES 3e80
BITMAP
e038
e038
f8f8
23e0
0f80
3e20
f8f8
e038
e038
ENDCHAR
STARTCHAR Ooblique
ENCODING 216
SWIDTH 667 0
DWIDTH 16 0
BBX 13 16 2 0
ATTRIBUTES 3e80
BITMAP
7ff8
fff8
e078
c0f8
c0d8
c198
c398
c318
c618
ce18
cc18
d818
f818
f038
fff8
fff0
ENDCHAR
STARTCHAR Ugrave
ENCODING 217
SWIDTH 667 0
DWIDTH 16 0
BBX 13 21 2 0
ATTRIBUTES 3e80
BITMAP
0600
0700
0300
0100
0000
c018
c018
c018
c018
c018
c018
c018
c018
c018
c018
c018
c018
c018
e038
fff8
7ff0
ENDCHAR
STARTCHAR Uacute
ENCODING 218
SWIDTH 667 0
DWIDTH 16 0
BBX 13 21 2 0
ATTRIBUTES 3e80
BITMAP
0300
0700
0600
0400
0000
c018
c018
c018
c018
c018
c018
c018
c018
c018
c018
c018
c018
c018
e038
fff8
7ff0
ENDCHAR
STARTCHAR Ucircumflex
ENCODING 219
SWIDTH 667 0
DWIDTH 16 0
BBX 13 22 2 0
ATTRIBUTES 3e80
BITMAP
0200
0700
0f80
1d80
0880
0000
c018
c018
c018
c018
c018
c018
c018
c018
c018
c018
c018
c018
c018
e038
fff8
7ff0
ENDCHAR
STARTCHAR Udiaeresis
ENCODING 220
SWIDTH 667 0
DWIDTH 16 0
BBX 13 19 2 0
ATTRIBUTES 3e80
BITMAP
0d80
0d80
0000
c018
c018
c018
c018
c018
c018
c018
c018
c018
c018
c018
c018
c018
e038
fff8
7ff0
ENDCHAR
STARTCHAR Yacute
ENCODING 221
SWIDTH 667 0
DWIDTH 16 0
BBX 13 21 2 0
ATTRIBUTES 3e80
BITMAP
0180
0380
0300
0200
0000
c018
c018
c018
c018
c018
c018
c018
fff8
7ff8
0018
0018
0018
0018
0038
fff8
fff0
ENDCHAR
STARTCHAR THORN
ENCODING 222
SWIDTH 667 0
DWIDTH 16 0
BBX 13 16 2 0
ATTRIBUTES 3e80
BITMAP
c000
c000
c000
c000
fff0
fff8
0038
0018
0018
0018
0038
fff8
fff0
c000
c000
c000
ENDCHAR
STARTCHAR ssharp
ENCODING 223
SWIDTH 667 0
DWIDTH 16 0
BBX 13 18 2 -2
ATTRIBUTES 3e80
BITMAP
fff0
fff8
0038
0018
0018
0018
0018
fff8
fff8
c018
c018
c018
c018
c038
c7f8
c7f0
c000
c000
ENDCHAR
STARTCHAR agrave
ENCODING 224
SWIDTH 667 0
DWIDTH 16 0
BBX 13 16 2 0
ATTRIBUTES 3e80
BITMAP
0600
0700
0300
0100
0000
0000
0000
7ff8
fff8
e018
c018
c018
c018
e018
ff18
7f18
ENDCHAR
STARTCHAR aacute
ENCODING 225
SWIDTH 667 0
DWIDTH 16 0
BBX 13 16 2 0
ATTRIBUTES 3e80
BITMAP
0300
0300
0600
0400
0000
0000
0000
7ff8
fff8
e018
c018
c018
c018
e018
ff18
7f18
ENDCHAR
STARTCHAR acircumflex
ENCODING 226
SWIDTH 667 0
DWIDTH 16 0
BBX 13 16 2 0
ATTRIBUTES 3e80
BITMAP
0200
0300
0780
0dc0
0c80
0000
0000
7ff8
fff8
e018
c018
c018
c018
e018
ff18
7f18
ENDCHAR
STARTCHAR atilde
ENCODING 227
SWIDTH 667 0
DWIDTH 16 0
BBX 13 16 2 0
ATTRIBUTES 3e80
BITMAP
0060
0060
1fe0
1fc0
1800
1800
0000
7ff8
fff8
e018
e018
e018
e018
e018
ff18
7f18
ENDCHAR
STARTCHAR adiaeresis
ENCODING 228
SWIDTH 667 0
DWIDTH 16 0
BBX 13 14 2 0
ATTRIBUTES 3e80
BITMAP
0cc0
0cc0
0000
0000
0000
7ff8
fff8
e018
c018
c018
c018
e018
ff18
7f18
ENDCHAR
STARTCHAR aring
ENCODING 229
SWIDTH 667 0
DWIDTH 16 0
BBX 13 16 2 0
ATTRIBUTES 3e80
BITMAP
0780
0480
0480
0480
0780
0000
0000
7ff8
fff8
e018
c018
c018
c018
e018
ff18
7f18
ENDCHAR
STARTCHAR ae
ENCODING 230
SWIDTH 1126 0
DWIDTH 27 0
BBX 24 9 2 0
ATTRIBUTES 6978
BITMAP
7ffffe
ffffff
e01c0e
c0183c
c018f8
c01800
e01c00
ff1fff
7f1fff
ENDCHAR
STARTCHAR ccedilla
ENCODING 231
SWIDTH 667 0
DWIDTH 16 0
BBX 13 13 2 -4
ATTRIBUTES 3e80
BITMAP
7ff8
fff8
e000
c000
c000
c000
e000
fff8
7ff8
0300
0100
0300
0300
ENDCHAR
STARTCHAR egrave
ENCODING 232
SWIDTH 667 0
DWIDTH 16 0
BBX 13 16 2 0
ATTRIBUTES 3e80
BITMAP
0600
0700
0300
0100
0000
0000
0000
7ff0
fff8
e078
c1e0
c3c0
c400
e000
fff8
7ff8
ENDCHAR
STARTCHAR eacute
ENCODING 233
SWIDTH 667 0
DWIDTH 16 0
BBX 13 16 2 0
ATTRIBUTES 3e80
BITMAP
0300
0700
0600
0400
0000
0000
0000
7ff0
fff8
e078
c1e0
c3c0
c400
e000
fff8
7ff8
ENDCHAR
STARTCHAR ecircumflex
ENCODING 234
SWIDTH 667 0
DWIDTH 16 0
BBX 13 16 2 0
ATTRIBUTES 3e80
BITMAP
0200
0700
0780
0dc0
0c80
0000
0000
7ff0
fff8
e078
c1e0
c3c0
c400
e000
fff8
7ff8
ENDCHAR
STARTCHAR ediaeresis
ENCODING 235
SWIDTH 667 0
DWIDTH 16 0
BBX 13 14 2 0
ATTRIBUTES 3e80
BITMAP
0d80
0d80
0000
0000
0000
7ff0
fff8
e078
c1e0
c3c0
c000
e000
fff8
7ff8
ENDCHAR
STARTCHAR igrave
ENCODING 236
SWIDTH 250 0
DWIDTH 6 0
BBX 3 16 2 0
ATTRIBUTES 1770
BITMAP
c0
c0
60
20
00
00
00
c0
c0
c0
c0
c0
c0
c0
c0
c0
ENDCHAR
STARTCHAR iacute
ENCODING 237
SWIDTH 250 0
DWIDTH 6 0
BBX 4 16 1 0
ATTRIBUTES 1770
BITMAP
70
70
60
40
00
00
00
60
60
60
60
60
60
60
60
60
ENDCHAR
STARTCHAR icircumflex
ENCODING 238
SWIDTH 250 0
DWIDTH 6 0
BBX 6 16 0 0
ATTRIBUTES 1770
BITMAP
10
30
78
ec
cc
00
00
30
30
30
30
30
30
30
30
30
ENDCHAR
STARTCHAR idiaeresis
ENCODING 239
SWIDTH 250 0
DWIDTH 6 0
BBX 6 15 0 0
ATTRIBUTES 1770
BITMAP
cc
cc
00
00
00
00
30
30
30
30
30
30
30
30
30
ENDCHAR
STARTCHAR eth
ENCODING 240
SWIDTH 667 0
DWIDTH 16 0
BBX 13 16 2 0
ATTRIBUTES 3e80
BITMAP
fff0
fff8
0c38
0c18
0c18
0018
0018
7ff8
fff8
e018
c018
c018
c018
e038
fff8
7ff0
ENDCHAR
STARTCHAR ntilde
ENCODING 241
SWIDTH 667 0
DWIDTH 16 0
BBX 13 16 2 0
ATTRIBUTES 3e80
BITMAP
0060
00e0
1fe0
1fc0
1800
1800
0000
7ff0
fff8
e038
e018
e018
e018
e018
e018
e018
ENDCHAR
STARTCHAR ograve
ENCODING 242
SWIDTH 667 0
DWIDTH 16 0
BBX 13 16 2 0
ATTRIBUTES 3e80
BITMAP
0600
0700
0300
0100
0000
0000
0000
7ff0
fff8
e038
c018
c018
c018
e038
fff8
7ff0
ENDCHAR
STARTCHAR oacute
ENCODING 243
SWIDTH 667 0
DWIDTH 16 0
BBX 13 16 2 0
ATTRIBUTES 3e80
BITMAP
0300
0700
0600
0400
0000
0000
0000
7ff0
fff8
e038
c018
c018
c018
e038
fff8
7ff0
ENDCHAR
STARTCHAR ocircumflex
ENCODING 244
SWIDTH 667 0
DWIDTH 16 0
BBX 13 16 2 0
ATTRIBUTES 3e80
BITMAP
0200
0700
0780
0d80
0c80
0000
0000
7ff0
fff8
e038
c018
c018
c018
e038
fff8
7ff0
ENDCHAR
STARTCHAR otilde
ENCODING 245
SWIDTH 709 0
DWIDTH 17 0
BBX 13 16 2 0
ATTRIBUTES 4268
BITMAP
0060
00e0
1fe0
3fc0
3000
3000
0000
7ff0
fff8
e038
c018
c018
c018
e038
fff8
7ff0
ENDCHAR
STARTCHAR odiaeresis
ENCODING 246
SWIDTH 667 0
DWIDTH 16 0
BBX 13 14 2 0
ATTRIBUTES 3e80
BITMAP
0d80
0d80
0000
0000
0000
7ff0
fff8
e038
c018
c018
c018
e038
fff8
7ff0
ENDCHAR
STARTCHAR division
ENCODING 247
SWIDTH 500 0
DWIDTH 12 0
BBX 9 11 2 2
ATTRIBUTES 2ee0
BITMAP
1800
1800
0000
0000
ff80
ff80
0000
0000
0000
1800
1800
ENDCHAR
STARTCHAR oslash
ENCODING 248
SWIDTH 667 0
DWIDTH 16 0
BBX 13 9 2 0
ATTRIBUTES 3e80
BITMAP
7ff0
fff8
e1b8
c318
c718
ce18
ec38
fff8
7ff0
ENDCHAR
STARTCHAR ugrave
ENCODING 249
SWIDTH 667 0
DWIDTH 16 0
BBX 13 16 2 0
ATTRIBUTES 3e80
BITMAP
0600
0700
0300
0100
0000
0000
0000
c018
c018
c018
c018
c018
c018
e038
fff8
7ff0
ENDCHAR
STARTCHAR uacute
ENCODING 250
SWIDTH 667 0
DWIDTH 16 0
BBX 13 16 2 0
ATTRIBUTES 3e80
BITMAP
0300
0700
0600
0400
0000
0000
0000
c018
c018
c018
c018
c018
c018
e038
fff8
7ff0
ENDCHAR
STARTCHAR ucircumflex
ENCODING 251
SWIDTH 667 0
DWIDTH 16 0
BBX 13 16 2 0
ATTRIBUTES 3e80
BITMAP
0200
0700
0780
0d80
0c80
0000
0000
c018
c018
c018
c018
c018
c018
e038
fff8
7ff0
ENDCHAR
STARTCHAR udiaeresis
ENCODING 252
SWIDTH 667 0
DWIDTH 16 0
BBX 13 14 2 0
ATTRIBUTES 3e80
BITMAP
0d80
0d80
0000
0000
0000
c018
c018
c018
c018
c018
c018
e038
fff8
7ff0
ENDCHAR
STARTCHAR yacute
ENCODING 253
SWIDTH 667 0
DWIDTH 16 0
BBX 13 23 2 -7
ATTRIBUTES 3e80
BITMAP
0300
0700
0600
0400
0000
0000
0000
c018
c018
c018
c018
c018
c018
e018
fff8
7ff8
0018
0018
0018
0018
0018
0018
0018
ENDCHAR
STARTCHAR thorn
ENCODING 254
SWIDTH 667 0
DWIDTH 16 0
BBX 13 16 2 0
ATTRIBUTES 3e80
BITMAP
c000
c000
c000
c000
fff0
fff8
0038
0018
0018
0018
0038
fff8
fff0
c000
c000
c000
ENDCHAR
STARTCHAR ydiaeresis
ENCODING 255
SWIDTH 667 0
DWIDTH 16 0
BBX 13 21 2 -7
ATTRIBUTES 3e80
BITMAP
0d80
0d80
0000
0000
0000
c018
c018
c018
c018
c018
c018
e018
fff8
7ff8
0018
0018
0018
0018
0018
0018
0018
ENDCHAR
ENDFONT
